<?xml version="1.0" encoding="UTF-8" standalone="no"?> <svg xmlns="http://www.w3.org/2000/svg" viewBox="0 0 520 520"><title>Dress</title><g id="ress"><path d="M347,347l.19,1.11a3.44,3.44,0,0,0,3.39,2.88,2.84,2.84,0,0,0,.58-.05,3.44,3.44,0,0,0,2.83-4l-.18-1.11A3.45,3.45,0,0,0,347,347Z"/><path d="M357.14,366.36a3.45,3.45,0,1,0-6.81,1.07c6.66,42.4,10.67,76.92,11.93,102.69-3.24.85-9.28,2.39-17.14,4.24-6.21,1.46-12.54,2.77-18.86,3.91L304.37,252.18a3.45,3.45,0,1,0-6.87.67l21.93,226.58a373.51,373.51,0,0,1-56,4.78v-184a3.45,3.45,0,1,0-6.9,0v184a369.8,369.8,0,0,1-56-4.74l21.94-226.58a3.45,3.45,0,1,0-6.87-.67L193.78,478.31c-6.31-1.14-12.59-2.43-18.71-3.87-8-1.88-14.08-3.45-17.33-4.31,3.89-79.85,33.13-222.08,45.63-280a135.52,135.52,0,0,0,3-30.66,3.45,3.45,0,1,0-6.89.11,129.4,129.4,0,0,1-2.89,29.1c-12.68,58.77-42.55,204.1-45.9,283.93a3.47,3.47,0,0,0,2.52,3.47c.08,0,7.91,2.18,20.25,5.09,7.36,1.73,14.95,3.27,22.56,4.56a1.8,1.8,0,0,0,.32.06,378.27,378.27,0,0,0,63.45,5.37H260a380.4,380.4,0,0,0,63.67-5.41l.31-.05c7.61-1.31,15.25-2.85,22.72-4.61,12.12-2.85,20-5,20-5a3.46,3.46,0,0,0,2.54-3.47C368.17,446.29,364.09,410.55,357.14,366.36Z"/><path d="M200.42,135.39a3.45,3.45,0,0,0-2.81,4c.09.51.17,1,.26,1.54a3.44,3.44,0,0,0,3.4,2.9,3.39,3.39,0,0,0,.55,0,3.46,3.46,0,0,0,2.86-4l-.27-1.62A3.45,3.45,0,0,0,200.42,135.39Z"/><path d="M193.39,119.78a3.47,3.47,0,0,0,3.37,2.7,3.82,3.82,0,0,0,.75-.08,3.46,3.46,0,0,0,2.62-4.12L184.51,48l31.94-11.15c.15.67.32,1.35.49,2v0h0c.64,2.57,1.39,5.15,2.22,7.66q.56,1.66,1.14,3.3c.57,1.57,1.13,3,1.69,4.38h0l0,0c.39,1,.8,1.93,1.18,2.78h0l.05.12v0c.12.29.25.58.38.87l.53,1.17c.78,1.72,1.6,3.41,2.4,5s1.52,2.94,2.45,4.62l.07.11,0,0c.54,1,1.1,1.95,1.66,2.9h0c1,1.68,2,3.37,3.08,5l0,0c.16.25.32.5.49.74l0,.09,1.19,1.78c.2.31.4.62.61.92h0L238,83c.5.71,1,1.39,1.48,2.06l.2.27.05.07h0l0,0c.31.4.6.78.9,1.2l1.51,2,.18.23.1.12.21.27c.78,1,1.54,1.94,2.29,2.85h0c1.23,1.5,2.5,3,3.91,4.59l.06.06c.7.81,1.39,1.57,2,2.27h0v0l.64.68.27.28.65.7.29.3v0h0c.59.62,1.15,1.2,1.66,1.7h0l.85.86h0l.29.28h0c.09.09.21.21.31.29l.39.38.37.35.08.08.12.11.15.14.56.52a3.7,3.7,0,0,0,.65.47h0a3.77,3.77,0,0,0,.78.32h.06a3.22,3.22,0,0,0,2-.07h0c.16-.06.3-.13.45-.2l.11-.06a2.92,2.92,0,0,0,.37-.24l.09-.06.12-.11.1-.07c.12-.11.31-.28.54-.51l.17-.15.12-.11.1-.09.33-.32.42-.4a3.83,3.83,0,0,0,.29-.28v0l.3-.29.85-.85,0,0c.51-.5,1.07-1.08,1.66-1.7h0l.29-.31c.31-.32.63-.65.95-1h0l.62-.66h0c.65-.69,1.33-1.45,2-2.25l.09-.09c1.4-1.59,2.68-3.09,3.91-4.6a2.11,2.11,0,0,0,.19-.23c.72-.87,1.44-1.77,2.18-2.71l.13-.17.09-.11.14-.18c.46-.6.93-1.2,1.4-1.84l.15-.19h0l.91-1.21h0l0,0h0l.18-.24q.76-1,1.53-2.13c.58-.81,1.16-1.66,1.77-2.54h0c.61-.89,1.22-1.8,1.78-2.67l.57-.86h0v0c1-1.64,2.08-3.33,3.08-5,.56-1,1.12-1.91,1.66-2.9l0,0,.05-.1c.47-.84.9-1.64,1.31-2.4s.79-1.5,1.14-2.22h0c.81-1.59,1.62-3.27,2.39-5l.54-1.19c.16-.33.3-.66.4-.92.42-1,.84-1.93,1.23-2.9v0h0c.56-1.39,1.12-2.82,1.68-4.38.4-1.1.78-2.2,1.15-3.31.83-2.52,1.58-5.1,2.22-7.66.18-.71.35-1.39.5-2.06L335.49,48l-18.68,84a134.86,134.86,0,0,0-.18,58.09c7.19,33.3,17.7,84.11,27,137.05A3.46,3.46,0,0,0,347,330a4,4,0,0,0,.6,0,3.46,3.46,0,0,0,2.8-4c-9.3-53.06-19.84-104-27-137.31a128.08,128.08,0,0,1,.17-55.15l19.34-87a3.44,3.44,0,0,0-2.23-4L302.18,29.06h0a.05.05,0,0,1,0,0c-.13,0-.26-.05-.38-.08l-.25-.05a4,4,0,0,0-.49,0h-.2l-.48.08-.2.05a4.24,4.24,0,0,0-.5.18l-.09,0-.28.13a3.49,3.49,0,0,0-1.52,1.95c-2.87,5.62-17.64,11.38-37.71,11.38S225.22,37,222.31,31.34a3.51,3.51,0,0,0-1.58-2,3.45,3.45,0,0,0-2.84-.26l0,0h0L179.34,42.5a3.43,3.43,0,0,0-2.23,4ZM294.86,42.52c-.19.63-.38,1.26-.59,1.89-.34,1-.7,2.08-1.07,3.11-.54,1.49-1.06,2.84-1.6,4.15h0c-.37.92-.75,1.82-1.15,2.72h0l-.05.12c-.09.22-.18.43-.29.65l-.07.15c-.16.37-.32.72-.49,1.09-.74,1.63-1.51,3.21-2.29,4.74-.33.66-.69,1.35-1.07,2.06l-.6,1.12c-.21.38-.39.73-.61,1.12l-.13.23c-.52.93-1.05,1.84-1.57,2.75h0c-.95,1.59-1.92,3.19-2.91,4.74-.13.18-.25.37-.37.55l-.18.29-1.12,1.68-.59.88h0c-.59.85-1.16,1.68-1.73,2.49s-1.09,1.53-1.64,2.27h0c-.32.42-.63.83-.91,1.22-.5.66-1,1.3-1.48,1.92l-.11.15-.06.08h0c-.83,1.06-1.64,2.06-2.43,3-1.17,1.44-2.4,2.88-3.74,4.39-.68.77-1.34,1.5-1.92,2.13l-.05,0h0l-.37.41-.3.32-1.11,1.17-.06.06h0l0,0-.11.12-1,1-1.05,1-1-1-1-1-.13-.14h0v0h0l-.13-.13-.41-.43-.28-.3-.37-.4-.27-.29-.35-.37-2-2.21c-1.34-1.52-2.57-3-3.74-4.4-.79-1-1.6-2-2.43-3,0,0,0,0,0,0l0-.06-.16-.2c-.47-.61-1-1.23-1.43-1.87-.31-.42-.62-.84-.9-1.2l-.1-.13c-.47-.65-.94-1.3-1.41-2l-.15-.2c-.57-.8-1.14-1.64-1.71-2.47s-1.15-1.71-1.74-2.6l-.17-.26-.36-.56c-1-1.56-2-3.17-2.92-4.74-.53-.91-1.06-1.83-1.58-2.77h0l-.12-.21-.63-1.16-.59-1.08L233.16,62c-.14-.27-.3-.56-.43-.83-.77-1.51-1.54-3.09-2.29-4.74-.16-.35-.33-.7-.48-1.07l-.07-.15c-.1-.21-.2-.43-.33-.75-.39-.9-.79-1.82-1.16-2.75-.54-1.31-1.06-2.66-1.6-4.16-.38-1-.73-2.06-1.07-3.11h0c-.2-.62-.39-1.26-.58-1.88C233.39,46.9,246,49.59,260,49.59S286.61,46.9,294.86,42.52Z"/></g></svg>