<svg xmlns="http://www.w3.org/2000/svg" viewBox="0 0 125.49 124.59"><defs><style>.cls-1{fill:#d0898f;}</style></defs><g id="Layer_2" data-name="Layer 2"><g id="icons"><path class="cls-1" d="M52.08,124.57q-19.57,0-39.14,0c-3,0-5.85-.36-8.44-2.11A9.17,9.17,0,0,1,0,114.18C.11,98.43,0,82.67.06,66.92c0-6.52,3.66-10.15,10.32-10.17,16.5-.07,33,0,49.49-.07,1.21,0,3.07.85,3.54-.88s-1.47-1.94-2.57-2.58C57.74,51.42,56,48.9,56,45.16c.07-10.09,0-20.19.08-30.28.06-4.86,3.12-8.22,8-8.34,10-.26,20-.45,29.9,0,5.72.26,9.64,3.78,9.48,10.32-.22,8.74-.08,17.48-.05,26.22,0,4.27-.79,8.11-5.07,10.19-2.17,1.05-1.39,2.62-.25,3.38,6.69,4.49,6.26,11.19,6.18,18-.16,12.55-.33,25.11.05,37.65.25,8-5,12.34-12.7,12.31C78.42,124.53,65.25,124.57,52.08,124.57Zm-.34-4.33c13.66,0,27.32,0,41,0,4.6,0,7.07-2.25,7.09-6.58.06-15.5,0-31,0-46.51,0-2.82-1.29-5.07-3.79-5.73-3.07-.82-3.39-2.59-3.16-5.13.13-1.35,0-2.71,0-4.06,0-1,.09-2.05,1.46-2.1,4-.16,4.46-3.31,4.53-6,.24-9.22.21-18.46,0-27.69-.08-4.27-1.72-5.58-6-5.58q-13.47,0-26.95,0c-5.48,0-6.08.61-6.09,6.15,0,9.11.29,18.23-.15,27.32-.19,4,1.58,5.55,4.77,5.59s3.73,1.4,3.44,4a13.17,13.17,0,0,0,0,3.32c.45,3.08-.77,3.93-3.85,3.9C46.69,61,29.22,61,11.74,61.06c-5.71,0-7.33,1.6-7.34,7.16q0,22.16,0,44.3c0,5.63,2.13,7.71,7.83,7.71Q32,120.26,51.74,120.24Z"/><path class="cls-1" d="M50.21,9.29c-.35,1.89-1.44,3.07-3.06,2C43.48,8.88,40,6.14,36.52,3.48A1.69,1.69,0,0,1,36.31.89,1.71,1.71,0,0,1,38.87.37q5.39,3.81,10.68,7.75C49.9,8.37,50,8.93,50.21,9.29Z"/><path class="cls-1" d="M109,11.59a1.86,1.86,0,0,1-1.66-1.24,2.09,2.09,0,0,1,.73-2.61q5-3.68,10.07-7.26A1.92,1.92,0,0,1,121,1,1.51,1.51,0,0,1,121,3.32a96.34,96.34,0,0,1-11.24,8.12A2.3,2.3,0,0,1,109,11.59Z"/><path class="cls-1" d="M50.08,31.52A2.44,2.44,0,0,1,48.87,34c-3.06,2.27-6.12,4.55-9.24,6.74-1.22.86-2.63.95-3.57-.46s.24-2.28,1.22-3c3.07-2.26,6.2-4.44,9.27-6.69C48.45,29.2,49.39,30.2,50.08,31.52Z"/><path class="cls-1" d="M121.53,38.93c-.3,2.08-1.62,3.07-3.1,2.11-3.7-2.38-7.18-5.1-10.67-7.8a1.72,1.72,0,0,1,0-2.63,1.81,1.81,0,0,1,2.63-.3c3.38,2.45,6.78,4.86,10.14,7.33A6,6,0,0,1,121.53,38.93Z"/><path class="cls-1" d="M117.71,22.76h-5.14a2,2,0,0,1-2.25-1.9,1.86,1.86,0,0,1,1.9-2.22q5.69-.11,11.39,0a1.86,1.86,0,0,1,1.87,2.24,1.79,1.79,0,0,1-1.89,1.83c-2,0-3.92,0-5.88,0Z"/><path class="cls-1" d="M39.36,22.77H34.23c-1.16,0-2.25-.11-2.36-1.63s.48-2.47,2-2.5c3.67-.08,7.34-.11,11,0A2.09,2.09,0,0,1,47,21.14c-.17,1.36-1.26,1.64-2.46,1.63Z"/><path class="cls-1" d="M74.83,44.92c-1.14,0-2.29,0-3.44-.1-3.74-.22-5.87-2.06-6.32-5.44a94.4,94.4,0,0,1-.34-15.56c0-.78,0-1.56.08-2.35.11-3.72,2.76-6.06,6.83-5.94,2.81.08,5.68.05,8.46,0,2.28,0,4.62,0,6.94,0,4.52.07,7.09,2.61,7.23,7.15.16,5.35.16,10.57,0,15.52-.16,4.5-2.32,6.55-7,6.64-1.67,0-3.37,0-5,0h-4.8C76.58,44.9,75.71,44.92,74.83,44.92ZM71.36,18.48c-1.39,0-3.52.43-3.6,3.08,0,.79-.05,1.58-.08,2.37A91.37,91.37,0,0,0,68,39c.26,2,1.23,2.74,3.57,2.89,1.91.11,3.9.08,5.82.06l2.62,0,1.47,0h.77c1.63,0,3.31,0,5,0,3.16-.05,4-.83,4.11-3.78.17-4.89.17-10,0-15.33-.09-3-1.39-4.24-4.32-4.29-2.29,0-4.62,0-6.87,0-2.81,0-5.71,0-8.58,0Z"/><path class="cls-1" d="M52,67.1A22.51,22.51,0,1,1,29.59,89.58,22.32,22.32,0,0,1,52,67.1Zm.25,4.37C42,71.43,34,79.07,34,89.1a18.17,18.17,0,1,0,36.34.66A17.69,17.69,0,0,0,52.27,71.47Z"/></g></g></svg>