<svg xmlns="http://www.w3.org/2000/svg" viewBox="0 0 124.28 124.28"><defs><style>.cls-1{fill:#d0888e;}</style></defs><g id="Layer_2" data-name="Layer 2"><g id="icons"><path class="cls-1" d="M121.85,119.43h-1V75.28A2.42,2.42,0,0,0,123,70.93l-31.26-17V49.28A2.4,2.4,0,0,0,91,47.56L64.57,21.08v-8.7h2.91a2.43,2.43,0,0,0,0-4.86H64.57V2.43a2.43,2.43,0,1,0-4.86,0V7.52H56.86a2.43,2.43,0,1,0,0,4.86h2.85v8.7L33.24,47.56a2.4,2.4,0,0,0-.71,1.72v4.66l-31.26,17a2.43,2.43,0,0,0,1.16,4.56,2.39,2.39,0,0,0,1-.21v44.15h-1a2.43,2.43,0,1,0,0,4.85H121.85a2.43,2.43,0,1,0,0-4.85ZM35,84.79a2.42,2.42,0,0,0-2.42,2.43v32.21H8.25V72.66L32.53,59.47v5.9a2.43,2.43,0,1,0,4.85,0V50.28L62.14,25.52,86.9,50.28v69.15H78.16V99.24a16,16,0,1,0-32,0v20.19H37.38V87.22A2.43,2.43,0,0,0,35,84.79ZM51,99.24a11.18,11.18,0,0,1,8.74-10.89v31.08H51Zm13.6,20.19V88.35a11.18,11.18,0,0,1,8.74,10.89v20.19Zm27.18,0v-60L116,72.66v46.77Z"/><path class="cls-1" d="M62.14,71A11.17,11.17,0,1,0,51,59.83,11.18,11.18,0,0,0,62.14,71Zm0-17.48a6.31,6.31,0,1,1-6.31,6.31A6.32,6.32,0,0,1,62.14,53.52Z"/><path class="cls-1" d="M103.89,85a7.29,7.29,0,0,0-7.28,7.28v14.08A2.43,2.43,0,0,0,99,108.81h9.71a2.42,2.42,0,0,0,2.42-2.43V92.3A7.28,7.28,0,0,0,103.89,85ZM106.32,104h-4.86V92.3a2.43,2.43,0,0,1,4.86,0Z"/><path class="cls-1" d="M20.39,85a7.28,7.28,0,0,0-7.28,7.28v14.08a2.43,2.43,0,0,0,2.43,2.43h9.7a2.43,2.43,0,0,0,2.43-2.43V92.3A7.28,7.28,0,0,0,20.39,85ZM22.82,104H18V92.3a2.43,2.43,0,0,1,4.86,0Z"/><path class="cls-1" d="M36.67,74.58a2.43,2.43,0,1,0,.71,1.72A2.45,2.45,0,0,0,36.67,74.58Z"/></g></g></svg>