<svg xmlns="http://www.w3.org/2000/svg" viewBox="0 0 121.28 126.97"><defs><style>.cls-1{fill:#d0888e;}</style></defs><g id="Layer_2" data-name="Layer 2"><g id="icons"><path class="cls-1" d="M103.53,83.42c-.17,3.19-.38,6.37-.49,9.56-.08,2.4,0,4.81,0,7.21a76.32,76.32,0,0,1-.46,8.15c-.56,4-1.29,8.09-3.48,11.63a12.44,12.44,0,0,1-6.37,5.42,30,30,0,0,1-6.49,1.28c-3.89.52-7.78.14-11.66.29a6.75,6.75,0,0,1-.87-.09,4.26,4.26,0,0,1,.71-.65c2.29-1.09,3.35-3.16,4.32-5.33a34.57,34.57,0,0,0,2.52-9.45A63.32,63.32,0,0,0,82,103c0-7.08-.26-14.16.09-21.22.45-9,.06-18.09.35-27.12a20.33,20.33,0,0,1,3.67-10.7c.67-1,1.23-2.34,2.19-2.85s2.39-.24,3.61-.24c4.47,0,8.94,0,13.4,0a2.5,2.5,0,0,1,2.27,1.06,27,27,0,0,1,4.55,9.56,16.7,16.7,0,0,1,.39,4c0,4.19-.16,8.39,0,12.57.65,12.34.07,24.68.44,37A44,44,0,0,0,115.83,120a11.54,11.54,0,0,0,3.19,5.11c.77.62,1.58,1.19,2.26,1.7-3-.07-6.1-.16-9-1.51a11.13,11.13,0,0,1-5.94-6.62,37.62,37.62,0,0,1-1.75-7.4,95.55,95.55,0,0,1-.75-13.83v-14Z"/><path class="cls-1" d="M47.16,34.62a37.7,37.7,0,0,0-.57,10.07,32.48,32.48,0,0,0,1,5.3c.09.42.07.58-.34.75-1.12.46-2.2,1-3.31,1.46-2.53,1.07-5.07,2.1-7.59,3.19-.42.18-.47.15-.65-.27-1.19-2.7-2.42-5.37-3.65-8-.38-.83-.78-1.65-1.18-2.48-.8.66-.88,1.7-1.29,2.56-1.32,2.78-2.56,5.6-3.86,8.48l-8.09-3.46c-1.11-.48-2.22-1-3.31-1.47a.7.7,0,0,1-.33-.58c.34-1.56.77-3.1,1.1-4.66a9.06,9.06,0,0,0,0-1.65,40.09,40.09,0,0,0-.62-9.09c-1.1,4.52-2.22,9.05-3.29,13.59-.66,2.79-1.21,5.61-1.86,8.41C9,58.6,8.44,60.46,8,62.33c-.2.78-.36,1.56-.59,2.33-.06.18-.38.45-.52.42-2.14-.5-4.27-1-6.41-1.56-.43-.11-.5-.3-.4-.71.27-1.17.49-2.35.71-3.54.52-2.76,1-5.52,1.53-8.28.34-1.92.62-3.84,1-5.76S4,41.42,4.31,39.51,5,35.82,5.29,34s.6-3.84.94-5.75S7,24.14,7.35,22.1c.32-1.79.58-3.58.9-5.36.36-2,.82-3.93,1.14-5.9a1.6,1.6,0,0,1,.94-1.39c3.7-1.92,7.34-3.95,11-5.91a4.64,4.64,0,0,0,2.16-2.06,8.55,8.55,0,0,1,1-1.35c.06.07.14.12.14.18.15,3.54.12,7.1.51,10.61a54,54,0,0,0,.65,6.44c.28,1.22.23,2.54.47,3.81s.22,2.56.47,3.81c.78,3.85,1.39,7.76,2.86,11.44.36.91.77,1.8,1.15,2.7a7.19,7.19,0,0,0,1.32-2.74,61.54,61.54,0,0,0,2.48-10.1c.37-2.18.85-4.34,1.18-6.52.23-1.54.36-3.09.44-4.65.16-3.19.54-6.37.49-9.59A49,49,0,0,1,37.2,0a15,15,0,0,0,1.2,1.89,7.26,7.26,0,0,0,1.7,1.42c1.26.77,2.57,1.47,3.86,2.18,2.42,1.32,4.83,2.67,7.29,3.91a1.68,1.68,0,0,1,1.09,1.49c.3,2,.8,3.92,1.15,5.9s.58,3.85.89,5.77.61,3.57.93,5.35Q55.85,31,56.44,34c.36,1.91.75,3.81,1.1,5.72s.63,3.83,1,5.75.62,3.7,1,5.54.73,3.67,1.08,5.51c.4,2.1.76,4.21,1.16,6.31.09.46-.08.58-.48.68-1,.23-1.92.57-2.89.77a13.21,13.21,0,0,0-3.16.54c-1,.47-.94-.26-1-.61-.39-1.41-.67-2.85-1-4.28-.92-3.82-1.87-7.64-2.77-11.47s-1.72-7.54-2.59-11.31C47.57,36.35,47.37,35.54,47.16,34.62Zm-2-17.22-5,2.8c1,0,1.72,0,2.45,0s1.72-.13,2.58-.2Z"/><path class="cls-1" d="M26.65,58.09c1-2.39,2-4.79,3.08-7.18a13.67,13.67,0,0,1,.8-1.63.76.76,0,0,1,.64,0A14.4,14.4,0,0,1,32,50.88L35.05,58l10.19-4.43c1-.42,2-.8,3-1.2a10.57,10.57,0,0,1,.87,3c.52,2.22.93,4.44,1.24,6.71a71.37,71.37,0,0,1,.77,10.32,70.21,70.21,0,0,1-.76,8.06,37.56,37.56,0,0,1-2.15,8.32,22.93,22.93,0,0,1-6.24,9.58,14.88,14.88,0,0,1-5.73,3.26,3.35,3.35,0,0,1-1,.2c-.21,0-.56-.17-.61-.34-.2-.63-3.69-31.85-3.89-32.29-.12.26-.22.37-.22.49-.17,2.92-3.07,30.13-3.39,31.77a.7.7,0,0,1-.58.37,9.44,9.44,0,0,1-2.12-.55,18.06,18.06,0,0,1-7.33-5.92,32.23,32.23,0,0,1-5.19-12.08c-.44-1.9-.62-3.85-.92-5.77a46.61,46.61,0,0,1-.23-9.8,46.61,46.61,0,0,1,1.44-10.15,43,43,0,0,0,.94-4.51c.12-.69.29-.76.93-.46,1.21.56,2.5.93,3.72,1.47C20.71,55.36,23.63,56.71,26.65,58.09Z"/><path class="cls-1" d="M96.39,21.85c.21,0,.49,0,.6-.06a17.27,17.27,0,0,0,4.13-4.74,22.83,22.83,0,0,0,2.73-9.18c0-.66.27-1.3.36-2,.12-.86.18-1.73.26-2.59,1.17,0,2.33,0,3.5,0,.14,0,.38.36.38.56,0,3.26,1,6.37,1.29,9.59.16,1.66.56,3.3.77,5a20.06,20.06,0,0,1-.94,7.38c-.73,2.9-1.63,5.76-2.42,8.65-.31,1.16-.53,2.34-.74,3.52-.17,1-.31,1.17-1.29,1.17q-7.53,0-15,0c-1.11,0-1.3-.19-1.39-1.27a39.45,39.45,0,0,0-1.52-6.62c-.84-3.29-1.76-6.56-2.58-9.86a4,4,0,0,1,0-2,26.11,26.11,0,0,0,.63-4.78c.25-2.15.83-4.22,1-6.37a36.65,36.65,0,0,0,.42-4.44c0-.16.3-.44.49-.46a10.08,10.08,0,0,1,1.65,0c.6,0,1.41-.14,1.75.18s.15,1.14.23,1.73c.56,3.84.9,7.72,2.82,11.23a12.83,12.83,0,0,0,2.85,3.9c.67.57.39,1,.08,1.55l-.33.13.16.15Z"/><path class="cls-1" d="M25.88,6.24c-.08-.68.08-1.79.75-2s1.61.4,2.4.73c.29.12.48.48.73.71s2,.33,2.18,0a4.71,4.71,0,0,1,2.55-1.54.68.68,0,0,1,.95.45,4.93,4.93,0,0,1,0,3.93c-.21.52-.49.54-.91.55A3.38,3.38,0,0,1,32,8c-.19-.19-.66-.39-.76-.3-.5.41-1.2-.66-1.59.26a1.59,1.59,0,0,1-.59.56A2.52,2.52,0,0,1,26.6,9c-.68-.37-.8-1.36-.73-2.2A4.72,4.72,0,0,0,25.88,6.24Z"/><path class="cls-1" d="M31.89,14c-.41.35-.7.79-1,.78a1.07,1.07,0,0,1-.79-.69,1.06,1.06,0,0,1,.69-.79C31.09,13.26,31.42,13.67,31.89,14Z"/><path class="cls-1" d="M30.86,18.81l.78.54c-.23.29-.4.67-.7.83s-1-.51-.84-.82S30.56,19,30.86,18.81Z"/><path class="cls-1" d="M30.91,25.75l-.76-.7c.25-.24.47-.61.75-.67s.48.36.73.56Z"/><path class="cls-1" d="M96.39,21.85l-.14.31L96.09,22l.33-.13Z"/></g></g></svg>