<svg xmlns="http://www.w3.org/2000/svg" viewBox="0 0 124.29 78.25"><defs><style>.cls-1{fill:#d0888e;}</style></defs><g id="Layer_2" data-name="Layer 2"><g id="icons"><path class="cls-1" d="M116.33,78.25H7c.4-.46.8-.94,1.22-1.38q6.63-7,13.28-14,7.19-7.56,14.39-15.11l4.94-5.2L42.11,44c3.82,4,7.66,8.09,11.48,12.14a10.67,10.67,0,0,0,11,3.32c2.27-.57,3.9-2.12,5.47-3.77,4.1-4.32,8.24-8.62,12.42-13,.14.13.33.27.49.44q3.27,3.39,6.52,6.79l18.83,19.8C111,72.54,113.66,75.4,116.33,78.25Z"/><path class="cls-1" d="M124.29,78.06c-2.24-2.28-4.49-4.54-6.7-6.84Q106,59.15,94.53,47c-2.48-2.61-4.94-5.24-7.41-7.86-.21-.22-.41-.45-.67-.74.89-.95,1.76-1.9,2.64-2.82q16.22-17.07,32.43-34.11C122.28.72,123-.24,124.29.06Z"/><path class="cls-1" d="M8.38.1H115c-.3.36-.49.61-.71.84q-14.8,15.6-29.62,31.19L68.7,48.84c-1,1.1-2.09,2.19-3.07,3.33a4.94,4.94,0,0,1-7.78.06c-4-4.34-8.07-8.55-12.13-12.8Q34.55,27.7,23.35,16,16,8.33,8.78.66C8.66.53,8.58.37,8.38.1Z"/><path class="cls-1" d="M0,76.92V.13c.9.31,32.48,33.1,36.91,38.3L.2,77.05Z"/></g></g></svg>