<svg xmlns="http://www.w3.org/2000/svg" viewBox="0 0 54.97 46.21"><defs><style>.cls-1{fill:#d0888e;}</style></defs><g id="Layer_2" data-name="Layer 2"><g id="Capa_1" data-name="Capa 1"><path class="cls-1" d="M55,17.39a24,24,0,0,1-5.66,14A48.89,48.89,0,0,1,34.51,43.2q-2.26,1.26-4.63,2.32a6,6,0,0,1-5.52,0c-6.59-3.54-12.95-7.41-18-13.08A26.93,26.93,0,0,1,.62,22.17a17.52,17.52,0,0,1-.21-8.43C1.71,7,6.21,3.17,12.16.78,14,.06,16.07.31,18.05.21,21.25.06,24,1.26,26.69,2.65a1.62,1.62,0,0,0,1.7-.17A15,15,0,0,1,36.72,0c7.35.35,13.21,3.12,16.43,10.11A22.66,22.66,0,0,1,55,17.39Z"/></g></g></svg>