<svg xmlns="http://www.w3.org/2000/svg" viewBox="0 0 124.29 79.09"><defs><style>.cls-1{fill:#d0888e;}</style></defs><g id="Layer_2" data-name="Layer 2"><g id="icons"><path class="cls-1" d="M116.33,0a2.6,2.6,0,0,1,0,.6c-.38.46-.86,1.11-1.42,1.71C108.69,8.87,103,15.75,97.14,22.55c-4.5,5.23-9.43,10.17-14,15.36C76,46.09,68.91,54.37,61.82,62.62c-3.6,4.19-5.13,4.21-8.09-.41C47.38,52.3,41.23,42.3,35,32.36c-.52-.83-1.23-1.66-.33-2.39s1.83-.17,2.7.4c3.33,2.19,6.7,4.33,10,6.53,2.94,2,5.89,3.94,8.73,6,1.71,1.26,2.87.49,4-.46C65.68,38,71.26,33.62,76.77,29.13,84.41,22.9,92,16.6,99.6,10.36c4.26-3.49,8.57-6.92,12.87-10.36H0V79.09H124.29V0Z"/></g></g></svg>